<svg width="24" height="24" viewBox="0 0 24 24" fill="none" xmlns="http://www.w3.org/2000/svg">
<path fill-rule="evenodd" clip-rule="evenodd" d="M3.25 22C3.25 21.8011 3.32902 21.6103 3.46967 21.4697C3.61032 21.329 3.80109 21.25 4 21.25H20C20.1989 21.25 20.3897 21.329 20.5303 21.4697C20.671 21.6103 20.75 21.8011 20.75 22C20.75 22.1989 20.671 22.3897 20.5303 22.5303C20.3897 22.671 20.1989 22.75 20 22.75H4C3.80109 22.75 3.61032 22.671 3.46967 22.5303C3.32902 22.3897 3.25 22.1989 3.25 22Z" fill="#B1B1B1"/>
<path d="M11.52 14.929L17.437 9.01204C16.4411 8.59722 15.5368 7.98996 14.776 7.22504C14.0106 6.46403 13.403 5.5594 12.988 4.56304L7.07002 10.48C6.60802 10.942 6.37702 11.172 6.17902 11.427C5.94447 11.7271 5.7436 12.0521 5.58002 12.396C5.44102 12.687 5.33802 12.997 5.13102 13.616L4.04302 16.883C3.99309 17.0325 3.9858 17.1929 4.02195 17.3463C4.0581 17.4997 4.13628 17.6399 4.2477 17.7514C4.35913 17.8628 4.4994 17.941 4.65277 17.9771C4.80615 18.0133 4.96656 18.006 5.11602 17.956L8.38202 16.868C9.00202 16.661 9.31202 16.558 9.60302 16.418C9.94836 16.254 10.2714 16.0547 10.572 15.82C10.827 15.621 11.057 15.39 11.519 14.929M19.079 7.37004C19.3711 7.07785 19.6029 6.73098 19.7609 6.34924C19.919 5.9675 20.0003 5.55836 20.0003 5.14519C20.0002 4.73201 19.9188 4.32289 19.7607 3.94119C19.6025 3.55948 19.3707 3.21266 19.0785 2.92054C18.7863 2.62841 18.4395 2.3967 18.0577 2.23863C17.676 2.08056 17.2668 1.99922 16.8537 1.99927C16.4405 1.99931 16.0314 2.08074 15.6497 2.2389C15.268 2.39706 14.9211 2.62885 14.629 2.92104L13.919 3.63104L13.95 3.72104C14.21 4.47004 14.701 5.45304 15.624 6.37604C16.3939 7.15045 17.3343 7.734 18.37 8.08004L19.079 7.37004Z" fill="#B1B1B1"/>
</svg>
