<?xml version="1.0" encoding="UTF-8"?>
<svg id="_레이어_1" data-name="레이어 1" xmlns="http://www.w3.org/2000/svg" viewBox="0 0 171.82 42.79">
  <defs>
    <style>
      .cls-1 {
        font-family: HancomMalangMalang-Regular, 'Hancom MalangMalang';
        font-size: 25.68px;
        stroke: #231815;
        stroke-miterlimit: 10;
        stroke-width: 3.2px;
      }

      .cls-2 {
        letter-spacing: .06em;
      }

      .cls-3 {
        fill: #fc8080;
      }

      .cls-4 {
        fill: #fcc;
      }

      .cls-5 {
        letter-spacing: .09em;
      }

      .cls-6 {
        letter-spacing: .1em;
      }

      .cls-7 {
        letter-spacing: .09em;
      }

      .cls-8 {
        letter-spacing: .05em;
      }
    </style>
  </defs>
  <text class="cls-1" transform="translate(48.8 30.69) scale(.99 1)"><tspan class="cls-8" x="0" y="0">B</tspan><tspan class="cls-7" x="16.36" y="0">ON</tspan><tspan class="cls-2" x="59.84" y="0">B</tspan><tspan class="cls-6" x="76.54" y="0">O</tspan><tspan class="cls-5" x="100.32" y="0">N</tspan></text>
  <g>
    <path class="cls-4" d="M37.99,17.79c-1.62-6.83-7.76-11.91-15.09-11.91s-13.46,5.08-15.09,11.91c-.72.07-1.29.68-1.29,1.42l.71,5.53c.08.51.39.89.83,1.15,1.93,6.37,7.85,11.01,14.85,11.01s12.88-4.61,14.83-10.94c.38-.22.75-.59.87-1.22l.71-5.53c0-.75-.58-1.36-1.32-1.43Z"/>
    <path class="cls-3" d="M12.45,27.18c3.43,1.4,6.91,2.29,10.65,2.26s7.6-1.07,11.06-2.77c.96-.47.12-1.91-.84-1.44-3.3,1.62-6.84,2.57-10.54,2.54-3.49-.02-6.69-.89-9.89-2.2-.99-.41-1.43,1.21-.44,1.61h0Z"/>
  </g>
</svg>