<?xml version="1.0" encoding="UTF-8"?>
<svg id="_레이어_1" data-name="레이어 1" xmlns="http://www.w3.org/2000/svg" viewBox="0 0 200 200">
  <defs>
    <style>
      .cls-1 {
        font-family: HancomMalangMalang-Regular, 'Hancom MalangMalang';
        font-size: 39.31px;
        stroke: #231815;
        stroke-miterlimit: 10;
        stroke-width: 4.9px;
      }

      .cls-2 {
        fill: #fc8080;
      }

      .cls-3 {
        fill: #fcc;
      }

      .cls-4 {
        letter-spacing: .1em;
      }

      .cls-5 {
        letter-spacing: .05em;
      }

      .cls-6 {
        letter-spacing: .09em;
      }

      .cls-7 {
        letter-spacing: .06em;
      }
    </style>
  </defs>
  <text class="cls-1" transform="translate(10.86 140.99) scale(.99 1)"><tspan class="cls-5" x="0" y="0">B</tspan><tspan class="cls-6" x="25.04" y="0">ON</tspan><tspan class="cls-7" x="91.58" y="0">B</tspan><tspan class="cls-4" x="117.13" y="0">O</tspan><tspan class="cls-6" x="153.53" y="0">N</tspan></text>
  <g>
    <path class="cls-2" d="M68.36,75.27c1.46-10.11-4.12-20.26-14.03-24.18-9.91-3.92-20.93-.34-26.78,8.03-1.02-.29-2.11.23-2.51,1.23l-2,7.85c-.17.73.06,1.41.5,2-.8,9.65,4.72,19.09,14.18,22.83s19.88.66,25.91-6.86c.63-.09,1.33-.4,1.83-1.18l3.91-7.1c.4-1.02-.06-2.16-1.02-2.64Z"/>
    <path class="cls-3" d="M120.53,66.83c-2.36-9.93-11.29-17.32-21.94-17.32s-19.58,7.39-21.95,17.33c-1.05.11-1.88.99-1.88,2.07l1.03,8.04c.12.74.57,1.29,1.2,1.68,2.81,9.27,11.41,16.01,21.59,16.01s18.73-6.7,21.57-15.92c.56-.31,1.09-.86,1.27-1.77l1.03-8.04c0-1.1-.85-1.99-1.92-2.07Z"/>
    <path class="cls-2" d="M170.75,60.91c-5.05-8.88-15.68-13.47-25.91-10.49-10.23,2.98-16.73,12.57-16.22,22.77-.98.4-1.53,1.47-1.22,2.51l3.23,7.43c.32.68.91,1.08,1.63,1.27,5.29,8.11,15.43,12.18,25.21,9.33s16.11-11.67,16.25-21.31c.45-.46.81-1.13.72-2.05l-1.26-8.01c-.31-1.05-1.37-1.67-2.42-1.46Z"/>
    <path class="cls-2" d="M83.39,80.49c4.99,2.04,10.05,3.32,15.49,3.28,5.65-.04,11.05-1.56,16.09-4.03,1.4-.69.17-2.78-1.22-2.09-4.8,2.35-9.95,3.73-15.32,3.7-5.07-.03-9.74-1.3-14.39-3.2-1.44-.59-2.07,1.76-.64,2.34h0Z"/>
  </g>
</svg>