<svg width="18" height="20" viewBox="0 0 18 20" fill="none" xmlns="http://www.w3.org/2000/svg">
<path d="M8.89472 0C8.60522 0 8.31567 0.064875 8.09142 0.194625L0.931125 4.3365C0.482532 4.596 0.482532 5.00634 0.931125 5.26584L8.09142 9.40772C8.54002 9.66722 9.24937 9.66722 9.69792 9.40772L16.8582 5.26584C17.3068 5.00639 17.3068 4.596 16.8582 4.33655L9.69792 0.194672C9.47362 0.0648281 9.18417 0 8.89472 0ZM8.85609 2.48953C9.27859 2.49409 9.65844 2.59084 9.99562 2.77978C10.2262 2.90903 10.3773 3.0565 10.4487 3.22219C10.5178 3.38659 10.5218 3.60323 10.4609 3.87211L10.3859 4.13958C10.3362 4.33098 10.3259 4.46864 10.355 4.55255C10.3817 4.6352 10.4479 4.7062 10.5538 4.76555L10.7127 4.85452L9.15483 5.72733L8.98172 5.63044C8.78872 5.52234 8.66555 5.40016 8.6122 5.26388C8.55651 5.12631 8.5658 4.90748 8.64005 4.60739L8.71148 4.33795C8.75305 4.17748 8.75711 4.04595 8.72367 3.94336C8.69305 3.83911 8.62361 3.75666 8.51536 3.696C8.35058 3.60369 8.15323 3.57052 7.92333 3.59648C7.69105 3.62117 7.4512 3.70281 7.2038 3.84141C6.97077 3.97197 6.75905 4.13541 6.56864 4.33172C6.37592 4.52681 6.2105 4.75006 6.07237 5.00147L4.96378 4.38028C5.21306 4.12997 5.458 3.91102 5.69859 3.72342C5.93922 3.53592 6.19331 3.36717 6.46087 3.21717C7.16287 2.82386 7.81569 2.59 8.41931 2.51559C8.56418 2.49704 8.71014 2.48831 8.85619 2.48948L8.85609 2.48953ZM11.2353 5.14734L12.4923 5.85159L10.9344 6.72441L9.67739 6.0202L11.2353 5.14734ZM0.453 6.05044C0.183328 6.04317 0 6.25369 0 6.62606V14.0181C0 14.5361 0.354844 15.1507 0.803438 15.4098L7.69078 19.387C8.13937 19.6461 8.49422 19.4412 8.49422 18.9232V11.5311C8.49422 11.013 8.13937 10.3986 7.69078 10.1394L0.803438 6.16223C0.677344 6.08934 0.558516 6.05316 0.453 6.05034V6.05044ZM17.3642 6.05053C17.2588 6.05334 17.14 6.08944 17.0139 6.16233L10.1263 10.1395C9.67772 10.3986 9.32288 11.0132 9.32288 11.5313V18.9234C9.32288 19.4414 9.67772 19.6462 10.1263 19.387L17.0139 15.41C17.4625 15.1509 17.8172 14.5364 17.8172 14.0183V6.62616C17.8172 6.25388 17.634 6.04341 17.3642 6.05062V6.05053ZM2.29181 9.03891C2.599 9.10297 2.87953 9.1813 3.13341 9.27389C3.3879 9.3668 3.63383 9.48169 3.86841 9.61725C4.48778 9.97491 4.95994 10.3824 5.28487 10.8398C5.60981 11.2945 5.77228 11.7795 5.77228 12.2948C5.77228 12.5592 5.72278 12.768 5.62378 12.9213C5.52475 13.0718 5.35594 13.1983 5.11734 13.3007L4.87359 13.3907C4.70097 13.4583 4.588 13.528 4.53469 13.5998C4.48141 13.6687 4.45477 13.7639 4.45477 13.8853V14.0674L3.08016 13.2737V13.0754C3.08013 12.8542 3.122 12.6828 3.20578 12.5612C3.28956 12.4369 3.466 12.3202 3.73509 12.2112L3.97884 12.1171C4.12353 12.0604 4.22888 11.9891 4.29488 11.9031C4.36334 11.8186 4.39759 11.7142 4.39762 11.5901C4.39762 11.4013 4.33669 11.2192 4.21481 11.0436C4.09297 10.8653 3.92289 10.7131 3.70458 10.587C3.49895 10.4683 3.27681 10.3859 3.03816 10.3399C2.79953 10.2911 2.55075 10.281 2.29181 10.3096V9.03891ZM14.9265 9.44236C14.9978 9.44236 15.0639 9.45006 15.1249 9.46547C15.4498 9.54494 15.6123 9.84234 15.6123 10.3577C15.6123 10.6221 15.5628 10.888 15.4638 11.1556C15.3648 11.4205 15.196 11.7419 14.9573 12.1198L14.7136 12.4912C14.541 12.7581 14.428 12.9583 14.3747 13.0915C14.3214 13.2221 14.2948 13.3481 14.2948 13.4695V13.6516L12.9202 14.4453V14.247C12.9202 14.0258 12.962 13.806 13.0458 13.5876C13.1296 13.3666 13.3061 13.0462 13.5751 12.6265L13.8188 12.251C13.9635 12.0271 14.0689 11.8341 14.1349 11.6719C14.2033 11.5082 14.2376 11.3643 14.2376 11.2402C14.2376 11.0514 14.1767 10.9395 14.0549 10.9047C13.933 10.8671 13.7629 10.9114 13.5446 11.0373C13.339 11.1561 13.1168 11.3303 12.8783 11.5598C12.6397 11.7866 12.3909 12.0638 12.1319 12.3913V11.1205C12.4391 10.8299 12.7196 10.5843 12.9733 10.3837C13.2272 10.1832 13.4722 10.0148 13.7083 9.87858C14.2116 9.58795 14.6177 9.44253 14.9266 9.44231L14.9265 9.44236ZM3.08011 13.8728L4.45477 14.6663V16.1071L3.08016 15.3135V13.8728L3.08011 13.8728ZM14.2948 14.2506V15.6913L12.9202 16.4849V15.0443L14.2948 14.2506Z" fill="#FC8080"/>
</svg>
