<svg width="24" height="24" viewBox="0 0 24 24" fill="none" xmlns="http://www.w3.org/2000/svg">
<path d="M11.9888 2.09839C11.6993 2.09839 11.4097 2.16326 11.1855 2.29301L4.02518 6.43489C3.57659 6.69439 3.57659 7.10473 4.02518 7.36423L11.1855 11.5061C11.6341 11.7656 12.3434 11.7656 12.792 11.5061L19.9523 7.36423C20.4009 7.10478 20.4009 6.69439 19.9523 6.43494L12.792 2.29306C12.5677 2.16322 12.2782 2.09839 11.9888 2.09839ZM11.9501 4.58792C12.3726 4.59248 12.7525 4.68923 13.0897 4.87817C13.3203 5.00742 13.4713 5.15489 13.5428 5.32058C13.6118 5.48498 13.6159 5.70162 13.555 5.9705L13.48 6.23797C13.4303 6.42937 13.42 6.56703 13.449 6.65094C13.4757 6.73359 13.542 6.80459 13.6479 6.86394L13.8068 6.9529L12.2489 7.82572L12.0758 7.72883C11.8828 7.62073 11.7596 7.49855 11.7063 7.36226C11.6506 7.2247 11.6599 7.00587 11.7341 6.70578L11.8055 6.43634C11.8471 6.27587 11.8512 6.14434 11.8177 6.04175C11.7871 5.9375 11.7177 5.85505 11.6094 5.79439C11.4446 5.70208 11.2473 5.6689 11.0174 5.69487C10.7851 5.71956 10.5453 5.8012 10.2979 5.9398C10.0648 6.07036 9.8531 6.2338 9.66269 6.43011C9.46998 6.6252 9.30455 6.84845 9.16643 7.09986L8.05784 6.47867C8.30712 6.22836 8.55205 6.0094 8.79265 5.82181C9.03327 5.63431 9.28737 5.46556 9.55493 5.31556C10.2569 4.92225 10.9097 4.68839 11.5134 4.61398C11.6582 4.59543 11.8042 4.5867 11.9502 4.58787L11.9501 4.58792ZM14.3294 7.24573L15.5863 7.94998L14.0284 8.8228L12.7714 8.11859L14.3294 7.24573ZM3.54706 8.14883C3.27738 8.14156 3.09406 8.35208 3.09406 8.72445V16.1165C3.09406 16.6345 3.4489 17.2491 3.89749 17.5082L10.7848 21.4854C11.2334 21.7445 11.5883 21.5396 11.5883 21.0216V13.6295C11.5883 13.1114 11.2334 12.497 10.7848 12.2378L3.89749 8.26062C3.7714 8.18773 3.65257 8.15155 3.54706 8.14873V8.14883ZM20.4583 8.14892C20.3528 8.15173 20.2341 8.18783 20.1079 8.26072L13.2204 12.2379C12.7718 12.497 12.4169 13.1116 12.4169 13.6296V21.0218C12.4169 21.5398 12.7718 21.7445 13.2204 21.4854L20.108 17.5084C20.5566 17.2493 20.9113 16.6348 20.9113 16.1167V8.72455C20.9113 8.35226 20.728 8.14179 20.4583 8.14901V8.14892ZM5.38587 11.1373C5.69306 11.2014 5.97359 11.2797 6.22746 11.3723C6.48196 11.4652 6.72789 11.5801 6.96246 11.7156C7.58184 12.0733 8.05399 12.4808 8.37893 12.9382C8.70387 13.3929 8.86634 13.8779 8.86634 14.3932C8.86634 14.6576 8.81684 14.8664 8.71784 15.0197C8.6188 15.1702 8.44999 15.2967 8.2114 15.3991L7.96765 15.4891C7.79502 15.5567 7.68205 15.6264 7.62874 15.6981C7.57546 15.7671 7.54882 15.8623 7.54882 15.9837V16.1658L6.17421 15.3721V15.1738C6.17418 14.9525 6.21605 14.7811 6.29984 14.6596C6.38362 14.5353 6.56006 14.4186 6.82915 14.3096L7.0729 14.2155C7.21759 14.1588 7.32293 14.0875 7.38893 14.0015C7.4574 13.917 7.49165 13.8126 7.49168 13.6885C7.49168 13.4997 7.43074 13.3175 7.30887 13.142C7.18702 12.9637 7.01695 12.8115 6.79863 12.6854C6.59301 12.5667 6.37087 12.4843 6.13221 12.4383C5.89359 12.3895 5.64481 12.3794 5.38587 12.408V11.1373ZM18.0206 11.5407C18.0919 11.5407 18.158 11.5485 18.2189 11.5639C18.5439 11.6433 18.7063 11.9407 18.7063 12.4561C18.7063 12.7205 18.6568 12.9864 18.5578 13.254C18.4588 13.5189 18.29 13.8403 18.0514 14.2182L17.8076 14.5896C17.635 14.8565 17.5221 15.0566 17.4687 15.1899C17.4155 15.3205 17.3888 15.4465 17.3888 15.5679V15.75L16.0142 16.5437V16.3454C16.0142 16.1241 16.0561 15.9043 16.1398 15.686C16.2237 15.465 16.4001 15.1446 16.6691 14.7249L16.9129 14.3494C17.0576 14.1255 17.1629 13.9325 17.2289 13.7703C17.2974 13.6066 17.3316 13.4627 17.3317 13.3386C17.3317 13.1498 17.2708 13.0379 17.149 13.0031C17.0271 12.9655 16.857 13.0097 16.6386 13.1357C16.433 13.2545 16.2109 13.4286 15.9723 13.6581C15.7337 13.885 15.4849 14.1622 15.226 14.4897V13.2189C15.5331 12.9283 15.8136 12.6827 16.0674 12.4821C16.3213 12.2816 16.5663 12.1132 16.8024 11.977C17.3057 11.6863 17.7118 11.5409 18.0206 11.5407L18.0206 11.5407ZM6.17416 15.9711L7.54882 16.7647V18.2055L6.17421 17.4119V15.9712L6.17416 15.9711ZM17.3888 16.349V17.7897L16.0142 18.5833V17.1426L17.3888 16.349Z" fill="#B1B1B1"/>
</svg>
